<svg width="400" height="400" viewBox="0 0 400 400" fill="none" xmlns="http://www.w3.org/2000/svg">
<rect width="400" height="400" fill="#eef1e6"/>
<circle cx="200" cy="190" r="150" fill="rgba(255,255,255,.45)"/>
<path d="M96 400c0-62 46-104 104-104s104 42 104 104z" fill="#183b56"/>
<path d="M170 300c0 24 60 24 60 0v-26h-60z" fill="#f2d3bd"/>
<path d="M200 400v-96" stroke="rgba(255,255,255,.22)" stroke-width="6"/>
<path d="M172 300c-18 8-30 26-34 52M228 300c18 8 30 26 34 52" stroke="rgba(255,255,255,.22)" stroke-width="5" fill="none"/>
<ellipse cx="200" cy="196" rx="66" ry="74" fill="#f2d3bd"/>
<ellipse cx="150" cy="200" rx="10" ry="12" fill="#f2d3bd"/>
<ellipse cx="250" cy="200" rx="10" ry="12" fill="#f2d3bd"/>
<circle cx="200" cy="70" r="20" fill="#6d5642"/><path d="M134 150c0-44 30-68 66-68s66 24 66 68c-12-30-32-42-66-42s-54 12-66 42z" fill="#6d5642"/>
<circle cx="177" cy="192" r="6" fill="#2c2c30"/>
<circle cx="223" cy="192" r="6" fill="#2c2c30"/>
<path d="M188 218c8 8 16 8 24 0" stroke="#b56a4a" stroke-width="5" stroke-linecap="round" fill="none"/>
<path d="M196 200c-4 8-4 12 4 14" stroke="rgba(0,0,0,.12)" stroke-width="4" stroke-linecap="round" fill="none"/>
<g stroke="#2f4658" stroke-width="5" fill="none"><rect x="158" y="182" width="34" height="26" rx="10"/><rect x="208" y="182" width="34" height="26" rx="10"/><path d="M192 192h16"/></g>
</svg>