<svg width="900" height="620" viewBox="0 0 900 620" fill="none" xmlns="http://www.w3.org/2000/svg">
<defs>
  <linearGradient id="bg" x1="0" y1="0" x2="1" y2="1"><stop stop-color="#17384e"/><stop offset="1" stop-color="#0f2a3d"/></linearGradient>
  <linearGradient id="cta" x1="0" y1="0" x2="1" y2="1"><stop stop-color="#0096f2"/><stop offset="1" stop-color="#0072c6"/></linearGradient>
</defs>
<rect width="900" height="620" rx="28" fill="url(#bg)"/>
<path d="M40 150 H288 l24 -46 l30 96 l24 -60 l18 34 H860" stroke="#ffffff" stroke-opacity=".10" stroke-width="10" stroke-linecap="round" stroke-linejoin="round" fill="none"/>
<g transform="translate(700 250) scale(1.15)" fill="none">
    <circle cx="0" cy="0" r="96" fill="#0096f2" opacity=".16"/>
    <circle cx="0" cy="0" r="66" fill="#ffffff" opacity=".08"/>
    <path d="M-120 6 h44 l14 -34 l22 68 l16 -42 h48" stroke="#ffffff" stroke-opacity=".85" stroke-width="6" stroke-linecap="round" stroke-linejoin="round"/>
    <g transform="translate(0 0)">
      <rect x="-26" y="-26" width="52" height="52" rx="16" fill="#0096f2"/>
      <path d="M0 -14 v28 M-14 0 h28" stroke="#fff" stroke-width="7" stroke-linecap="round"/>
    </g>
  </g>
<circle cx="120" cy="560" r="130" fill="#0096f2" opacity=".08"/>
<text x="60" y="96" fill="#0096f2" font-family="Inter, Arial, sans-serif" font-size="20" font-weight="800" letter-spacing="5">ANUNCIE EM FORMIGA</text>
<text x="58" y="230" fill="#ffffff" font-family="Georgia, 'Times New Roman', serif" font-size="72" font-weight="400">Formiga</text>
<text x="60" y="300" fill="#d7e5ec" font-family="Inter, Arial, sans-serif" font-size="27" font-weight="500">Sede da região de saúde</text>
<rect x="60" y="470" width="288" height="66" rx="33" fill="url(#cta)"/>
<text x="204" y="512" fill="#ffffff" font-family="Inter, Arial, sans-serif" font-size="22" font-weight="800" text-anchor="middle" letter-spacing="1">Anuncie aqui</text>
<text x="60" y="588" fill="#8fa6b3" font-family="Inter, Arial, sans-serif" font-size="17" font-weight="600" letter-spacing="1">FORMATO CIDADE · 900×620</text>
<text x="840" y="588" fill="#ffffff" font-family="Inter, Arial, sans-serif" font-size="17" font-weight="800" text-anchor="end" letter-spacing="2">GUIA SAÚDE</text>
</svg>